<svg xmlns="http://www.w3.org/2000/svg" version="1.1" xmlns:xlink="http://www.w3.org/1999/xlink" width="512" height="512" x="0" y="0" viewBox="0 0 7111 7111" style="enable-background:new 0 0 512 512" xml:space="preserve" fill-rule="evenodd" class=""><g><path fill="#000002" d="M3766 3903c-267 0-534-54-792-107-216-44-419-86-589-86-68 0-126 7-176 20-25 7-52 2-73-14-20-16-32-40-32-66V544c0-40 29-75 69-82 80-13 157-19 234-19 202 0 375 44 542 87 171 44 347 90 562 90 222 0 461-49 731-149 1 0 2-1 3-1 136-45 283-67 452-67 267 0 533 55 791 108 216 44 420 86 590 86 68 0 126-7 176-20 25-7 52-2 73 14 20 16 32 40 32 66v3106c0 40-29 75-70 82-79 13-156 19-233 19-203 0-375-44-542-87-171-45-347-90-562-90-222 0-461 49-731 149-1 0-2 0-3 1-136 45-284 66-452 66zm-1381-360c186 0 398 44 623 90 250 51 508 104 758 104 150 0 280-19 398-58 289-107 547-159 788-159 236 0 423 49 603 95 165 43 320 83 501 83 45 0 91-3 137-8V757c-36 4-75 7-115 7-187 0-399-44-623-90-250-51-508-104-758-104-150 0-280 19-398 58-289 107-547 159-788 159-236 0-423-49-604-95-164-43-319-83-500-83-45 0-91 3-137 8v2933c36-5 74-7 115-7z" opacity="1" data-original="#000002" class=""></path><path fill="#000002" d="M2187 6307h-438c-46 0-83-38-83-84V302c0-166 135-302 302-302s302 136 302 302v5921c0 46-37 84-83 84zm-354-167h271V302c0-75-61-135-136-135s-135 60-135 135z" opacity="1" data-original="#000002" class=""></path><path fill="#000002" d="M3101 7111H835c-46 0-83-37-83-83v-402c0-268 218-486 485-486h1462c268 0 485 218 485 486v402c0 46-37 83-83 83zM919 6944h2099v-318c0-176-143-319-319-319H1237c-175 0-318 143-318 319zM4824 3149c-12 0-24-3-36-8l-557-268-556 268c-28 13-61 10-85-8-25-18-38-48-34-78l83-613-427-446c-21-23-29-55-19-84 9-29 34-50 64-56l608-110 293-544c15-27 43-44 73-44 31 0 59 17 74 44l293 544 608 110c30 6 54 27 64 56 9 29 2 61-19 84l-427 446 83 613c4 30-9 60-34 78-14 11-31 16-49 16zm-593-452c13 0 25 3 37 8l453 219-68-499c-3-25 5-51 23-69l347-364-495-89c-25-5-46-21-58-43l-239-443-238 443c-12 22-34 38-59 43l-495 89 348 364c18 18 26 44 22 69l-67 499 453-219c12-5 24-8 36-8z" opacity="1" data-original="#000002" class=""></path><path fill="#ffda44" d="m4268 2705 453 219-68-499c-3-25 5-51 23-69l347-364-495-89c-25-5-46-21-58-43l-239-443-238 443c-12 22-34 38-59 43l-495 89 348 364c18 18 26 44 22 69l-67 499 453-219c12-5 24-8 36-8 13 0 25 3 37 8z" opacity="1" data-original="#ffda44"></path><path fill="#fa3c48" d="m4824 2442 83 613c4 30-9 60-34 78-14 11-31 16-49 16-12 0-24-3-36-8l-557-268-556 268c-28 13-61 10-85-8-25-18-38-48-34-78l83-613-427-446c-21-23-29-55-19-84 9-29 34-50 64-56l608-110 293-544c15-27 43-44 73-44 31 0 59 17 74 44l293 544 608 110c30 6 54 27 64 56 9 29 2 61-19 84zM3766 3737c150 0 280-19 398-58 289-107 547-159 788-159 236 0 423 49 603 95 165 43 320 83 501 83 45 0 91-3 137-8V757c-36 4-75 7-115 7-187 0-399-44-623-90-250-51-508-104-758-104-150 0-280 19-398 58-289 107-547 159-788 159-236 0-423-49-604-95-164-43-319-83-500-83-45 0-91 3-137 8v2933c36-5 74-7 115-7 186 0 398 44 623 90 250 51 508 104 758 104z" opacity="1" data-original="#fa3c48" class=""></path><path fill="#ff8e3b" d="M2104 6140V302c0-75-61-135-136-135s-135 60-135 135v5838z" opacity="1" data-original="#ff8e3b"></path><path fill="#b05f3b" d="M2699 6307H1237c-175 0-318 143-318 319v318h2099v-318c0-176-143-319-319-319z" opacity="1" data-original="#b05f3b"></path></g></svg>